<svg xmlns="http://www.w3.org/2000/svg" width="1200" height="760" viewBox="0 0 1200 760">
  <rect width="1200" height="760" fill="#eef5fb"/>
  <rect x="60" y="45" width="1080" height="670" rx="24" fill="#ffffff" stroke="#cfe1ee"/>
  <rect x="60" y="45" width="1080" height="52" rx="24" fill="#dbe8f2"/>
  <circle cx="100" cy="71" r="10" fill="#ff6b6b"/>
  <circle cx="130" cy="71" r="10" fill="#ffcd56"/>
  <circle cx="160" cy="71" r="10" fill="#2ecc71"/>
  <text x="500" y="77" font-size="24" font-family="Segoe UI, Arial, sans-serif" fill="#33556f">Dummy MATLAB Figure Window</text>
  <g transform="translate(115,140)">
    <rect width="450" height="220" fill="#f9fcff" stroke="#dae9f4"/>
    <text x="18" y="28" font-size="22" font-family="Segoe UI, Arial, sans-serif" fill="#163650">Current Profile</text>
    <polyline points="40,180 90,170 140,130 190,145 240,95 290,120 340,82 390,92" fill="none" stroke="#1768ac" stroke-width="5" stroke-linecap="round"/>
  </g>
  <g transform="translate(630,140)">
    <rect width="450" height="220" fill="#f9fcff" stroke="#dae9f4"/>
    <text x="18" y="28" font-size="22" font-family="Segoe UI, Arial, sans-serif" fill="#163650">SOC / SOH</text>
    <polyline points="40,74 90,80 140,87 190,96 240,105 290,115 340,126 390,136" fill="none" stroke="#2c7da0" stroke-width="5" stroke-linecap="round"/>
    <polyline points="40,62 90,64 140,67 190,70 240,73 290,77 340,81 390,85" fill="none" stroke="#6c9a1f" stroke-width="5" stroke-linecap="round"/>
  </g>
  <g transform="translate(115,405)">
    <rect width="450" height="220" fill="#f9fcff" stroke="#dae9f4"/>
    <text x="18" y="28" font-size="22" font-family="Segoe UI, Arial, sans-serif" fill="#163650">Thermal View</text>
    <polyline points="40,170 90,158 140,147 190,133 240,118 290,106 340,98 390,93" fill="none" stroke="#f28f3b" stroke-width="5" stroke-linecap="round"/>
    <polyline points="40,186 90,176 140,162 190,149 240,137 290,125 340,118 390,112" fill="none" stroke="#d94841" stroke-width="5" stroke-linecap="round"/>
  </g>
  <g transform="translate(630,405)">
    <rect width="450" height="220" fill="#f9fcff" stroke="#dae9f4"/>
    <text x="18" y="28" font-size="22" font-family="Segoe UI, Arial, sans-serif" fill="#163650">MATLAB-style Surface</text>
    <path d="M60 170 L170 70 L310 120 L205 210 Z" fill="#1768ac" opacity="0.9"/>
    <path d="M170 70 L315 40 L450 125 L310 120 Z" fill="#f28f3b" opacity="0.92"/>
    <path d="M205 210 L310 120 L450 125 L340 245 Z" fill="#0b3351" opacity="0.96"/>
    <path d="M170 70 L205 210 L60 170 Z" fill="#8ecae6" opacity="0.9"/>
  </g>
</svg>
