<svg xmlns="http://www.w3.org/2000/svg" width="1600" height="640" viewBox="0 0 1600 640">
  <defs>
    <linearGradient id="bg" x1="0" y1="0" x2="1" y2="1">
      <stop offset="0%" stop-color="#071a2f"/>
      <stop offset="55%" stop-color="#0e3855"/>
      <stop offset="100%" stop-color="#f28f3b"/>
    </linearGradient>
    <linearGradient id="panel" x1="0" y1="0" x2="1" y2="1">
      <stop offset="0%" stop-color="#0d2238" stop-opacity="0.92"/>
      <stop offset="100%" stop-color="#103d62" stop-opacity="0.82"/>
    </linearGradient>
    <linearGradient id="wave" x1="0" y1="0" x2="1" y2="0">
      <stop offset="0%" stop-color="#ffb65c"/>
      <stop offset="100%" stop-color="#ff5b5b"/>
    </linearGradient>
  </defs>
  <rect width="1600" height="640" fill="url(#bg)"/>
  <circle cx="1380" cy="120" r="210" fill="#ffffff" opacity="0.05"/>
  <circle cx="1460" cy="580" r="260" fill="#ffffff" opacity="0.04"/>
  <rect x="70" y="70" width="920" height="500" rx="30" fill="url(#panel)" stroke="#86d7ff" stroke-opacity="0.28"/>
  <text x="120" y="185" fill="#f6fbff" font-size="62" font-family="Segoe UI, Arial, sans-serif" font-weight="700">Battery Management System</text>
  <text x="120" y="255" fill="#9fd8ff" font-size="36" font-family="Segoe UI, Arial, sans-serif">MATLAB + Simulink GitHub Project</text>
  <text x="120" y="330" fill="#d8ecf7" font-size="28" font-family="Segoe UI, Arial, sans-serif">Protection | Estimation | Thermal | Energy | Health | Communications</text>
  <g transform="translate(1140,120)">
    <path d="M160 0 C215 38 233 103 196 161 C162 213 92 242 36 215 C-18 188 -20 118 19 77 C61 32 98 17 160 0 Z" fill="#f28f3b"/>
    <path d="M150 18 C177 50 177 101 143 140 C111 177 66 197 28 183 C59 150 76 118 90 86 C106 54 122 34 150 18 Z" fill="#1768ac"/>
    <path d="M110 28 C132 58 131 98 109 131 C88 164 55 184 22 183 C44 150 58 120 71 92 C83 67 94 45 110 28 Z" fill="#f7f7f2"/>
  </g>
  <rect x="1080" y="355" width="420" height="170" rx="18" fill="#081725" fill-opacity="0.62" stroke="#7ecbff" stroke-opacity="0.24"/>
  <polyline points="1120,484 1170,442 1215,452 1265,395 1310,420 1360,362 1410,392 1460,334" fill="none" stroke="url(#wave)" stroke-width="8" stroke-linecap="round" stroke-linejoin="round"/>
  <polyline points="1120,465 1170,475 1215,448 1265,455 1310,430 1360,440 1410,425 1460,435" fill="none" stroke="#7fd3ff" stroke-width="5" stroke-linecap="round" stroke-linejoin="round" opacity="0.8"/>
  <text x="1115" y="395" fill="#f6fbff" font-size="24" font-family="Segoe UI, Arial, sans-serif">Simulation Results Overview</text>
  <text x="1115" y="425" fill="#b9dff3" font-size="18" font-family="Segoe UI, Arial, sans-serif">for repository presentation and technical documentation</text>
</svg>
