<svg xmlns="http://www.w3.org/2000/svg" width="1400" height="920" viewBox="0 0 1400 920">
  <rect width="1400" height="920" fill="#ffffff"/>
  <text x="60" y="70" font-size="38" font-family="Segoe UI, Arial, sans-serif" font-weight="700" fill="#10324d">Representative Results Dashboard</text>
  <text x="60" y="105" font-size="20" font-family="Segoe UI, Arial, sans-serif" fill="#5d788d">Dummy graph artwork for GitHub presentation</text>
  <g transform="translate(60,150)">
    <rect width="600" height="290" rx="20" fill="#f7fbff" stroke="#d7e8f4"/>
    <text x="26" y="38" font-size="24" font-family="Segoe UI, Arial, sans-serif" fill="#11324d">Pack Current vs Current Limit</text>
    <g stroke="#d6e6f2">
      <line x1="70" y1="60" x2="70" y2="245"/>
      <line x1="70" y1="245" x2="560" y2="245"/>
    </g>
    <polyline points="70,220 120,190 165,170 215,160 260,175 310,145 360,162 410,132 460,140 520,180" fill="none" stroke="#1768ac" stroke-width="6" stroke-linecap="round"/>
    <polyline points="70,185 120,185 165,185 215,185 260,188 310,188 360,196 410,202 460,212 520,212" fill="none" stroke="#f28f3b" stroke-width="5" stroke-dasharray="12 10" stroke-linecap="round"/>
  </g>
  <g transform="translate(720,150)">
    <rect width="600" height="290" rx="20" fill="#f7fbff" stroke="#d7e8f4"/>
    <text x="26" y="38" font-size="24" font-family="Segoe UI, Arial, sans-serif" fill="#11324d">SOC / SOH / SOP Trend</text>
    <g stroke="#d6e6f2">
      <line x1="70" y1="60" x2="70" y2="245"/>
      <line x1="70" y1="245" x2="560" y2="245"/>
    </g>
    <polyline points="70,95 120,105 170,116 220,126 270,138 320,150 370,164 420,177 470,191 520,204" fill="none" stroke="#2c7da0" stroke-width="6" stroke-linecap="round"/>
    <polyline points="70,88 120,90 170,92 220,96 270,99 320,102 370,108 420,112 470,118 520,123" fill="none" stroke="#6c9a1f" stroke-width="5" stroke-linecap="round"/>
    <polyline points="70,145 120,148 170,152 220,156 270,160 320,165 370,171 420,176 470,182 520,189" fill="none" stroke="#b63f69" stroke-width="5" stroke-linecap="round"/>
  </g>
  <g transform="translate(60,500)">
    <rect width="600" height="290" rx="20" fill="#f7fbff" stroke="#d7e8f4"/>
    <text x="26" y="38" font-size="24" font-family="Segoe UI, Arial, sans-serif" fill="#11324d">Thermal Core / Surface / Pack</text>
    <g stroke="#d6e6f2">
      <line x1="70" y1="60" x2="70" y2="245"/>
      <line x1="70" y1="245" x2="560" y2="245"/>
    </g>
    <polyline points="70,210 120,200 170,185 220,170 270,154 320,138 370,130 420,124 470,118 520,115" fill="none" stroke="#d94841" stroke-width="6" stroke-linecap="round"/>
    <polyline points="70,220 120,214 170,203 220,189 270,176 320,162 370,154 420,149 470,145 520,142" fill="none" stroke="#f28f3b" stroke-width="5" stroke-linecap="round"/>
    <polyline points="70,228 120,221 170,210 220,198 270,186 320,173 370,166 420,161 470,158 520,155" fill="none" stroke="#1768ac" stroke-width="5" stroke-linecap="round"/>
  </g>
  <g transform="translate(720,500)">
    <rect width="600" height="290" rx="20" fill="#f7fbff" stroke="#d7e8f4"/>
    <text x="26" y="38" font-size="24" font-family="Segoe UI, Arial, sans-serif" fill="#11324d">Health / Severity / Communication</text>
    <g stroke="#d6e6f2">
      <line x1="70" y1="60" x2="70" y2="245"/>
      <line x1="70" y1="245" x2="560" y2="245"/>
    </g>
    <polyline points="70,90 120,93 170,98 220,105 270,110 320,118 370,125 420,132 470,140 520,149" fill="none" stroke="#3aa5a1" stroke-width="6" stroke-linecap="round"/>
    <polyline points="70,212 120,212 170,212 220,196 270,196 320,180 370,180 420,160 470,160 520,145" fill="none" stroke="#b63f69" stroke-width="5" stroke-dasharray="10 10" stroke-linecap="round"/>
    <polyline points="70,160 120,160 170,158 220,157 270,155 320,153 370,150 420,148 470,146 520,144" fill="none" stroke="#4b5563" stroke-width="5" stroke-linecap="round"/>
  </g>
</svg>
