<svg xmlns="http://www.w3.org/2000/svg" width="1440" height="980" viewBox="0 0 1440 980">
  <rect width="1440" height="980" fill="#eef5fb"/>
  <text x="58" y="66" font-size="38" font-family="Segoe UI, Arial, sans-serif" font-weight="700" fill="#12344d">Battery Management System Performance Results</text>
  <text x="58" y="102" font-size="20" font-family="Segoe UI, Arial, sans-serif" fill="#5b7588">Simulation summaries for current supervision, thermal behavior, estimation, and diagnostics</text>

  <g transform="translate(58,142)">
    <rect width="630" height="320" rx="18" fill="#ffffff" stroke="#d6e4ef"/>
    <text x="22" y="36" font-size="23" font-family="Segoe UI, Arial, sans-serif" fill="#173b54">Discharge Current Command and Protection Limit</text>
    <line x1="72" y1="54" x2="72" y2="270" stroke="#8aa8bc" stroke-width="2"/>
    <line x1="72" y1="270" x2="592" y2="270" stroke="#8aa8bc" stroke-width="2"/>
    <g stroke="#eaf1f6">
      <line x1="72" y1="228" x2="592" y2="228"/>
      <line x1="72" y1="186" x2="592" y2="186"/>
      <line x1="72" y1="144" x2="592" y2="144"/>
      <line x1="72" y1="102" x2="592" y2="102"/>
    </g>
    <polyline points="72,250 124,232 176,207 228,191 280,175 332,188 384,158 436,171 488,137 540,149 592,181" fill="none" stroke="#0072BD" stroke-width="5" stroke-linecap="round"/>
    <polyline points="72,206 124,206 176,206 228,206 280,206 332,208 384,214 436,220 488,226 540,226 592,226" fill="none" stroke="#D95319" stroke-width="5" stroke-dasharray="12 9" stroke-linecap="round"/>
  </g>

  <g transform="translate(752,142)">
    <rect width="630" height="320" rx="18" fill="#ffffff" stroke="#d6e4ef"/>
    <text x="22" y="36" font-size="23" font-family="Segoe UI, Arial, sans-serif" fill="#173b54">Voltage and Temperature Supervision</text>
    <line x1="72" y1="54" x2="72" y2="270" stroke="#8aa8bc" stroke-width="2"/>
    <line x1="72" y1="270" x2="592" y2="270" stroke="#8aa8bc" stroke-width="2"/>
    <g stroke="#eaf1f6">
      <line x1="72" y1="228" x2="592" y2="228"/>
      <line x1="72" y1="186" x2="592" y2="186"/>
      <line x1="72" y1="144" x2="592" y2="144"/>
      <line x1="72" y1="102" x2="592" y2="102"/>
    </g>
    <polyline points="72,96 124,99 176,103 228,109 280,116 332,124 384,132 436,141 488,150 540,160 592,171" fill="none" stroke="#0072BD" stroke-width="5" stroke-linecap="round"/>
    <polyline points="72,220 124,211 176,199 228,187 280,173 332,160 384,151 436,143 488,135 540,128 592,122" fill="none" stroke="#D95319" stroke-width="5" stroke-linecap="round"/>
    <polyline points="72,231 124,223 176,213 228,203 280,193 332,183 384,176 436,170 488,165 540,160 592,156" fill="none" stroke="#EDB120" stroke-width="4" stroke-linecap="round"/>
  </g>

  <g transform="translate(58,534)">
    <rect width="630" height="320" rx="18" fill="#ffffff" stroke="#d6e4ef"/>
    <text x="22" y="36" font-size="23" font-family="Segoe UI, Arial, sans-serif" fill="#173b54">SOC, SOH and Power Capability Estimation</text>
    <line x1="72" y1="54" x2="72" y2="270" stroke="#8aa8bc" stroke-width="2"/>
    <line x1="72" y1="270" x2="592" y2="270" stroke="#8aa8bc" stroke-width="2"/>
    <g stroke="#eaf1f6">
      <line x1="72" y1="228" x2="592" y2="228"/>
      <line x1="72" y1="186" x2="592" y2="186"/>
      <line x1="72" y1="144" x2="592" y2="144"/>
      <line x1="72" y1="102" x2="592" y2="102"/>
    </g>
    <polyline points="72,98 124,103 176,110 228,118 280,127 332,138 384,149 436,160 488,170 540,181 592,192" fill="none" stroke="#0072BD" stroke-width="5" stroke-linecap="round"/>
    <polyline points="72,78 124,80 176,83 228,86 280,90 332,94 384,99 436,104 488,110 540,116 592,123" fill="none" stroke="#77AC30" stroke-width="5" stroke-linecap="round"/>
    <polyline points="72,160 124,160 176,162 228,165 280,169 332,174 384,179 436,185 488,191 540,198 592,206" fill="none" stroke="#A2142F" stroke-width="5" stroke-linecap="round"/>
  </g>

  <g transform="translate(752,534)">
    <rect width="630" height="320" rx="18" fill="#ffffff" stroke="#d6e4ef"/>
    <text x="22" y="36" font-size="23" font-family="Segoe UI, Arial, sans-serif" fill="#173b54">Health Assessment, Severity and Communications</text>
    <line x1="72" y1="54" x2="72" y2="270" stroke="#8aa8bc" stroke-width="2"/>
    <line x1="72" y1="270" x2="592" y2="270" stroke="#8aa8bc" stroke-width="2"/>
    <g stroke="#eaf1f6">
      <line x1="72" y1="228" x2="592" y2="228"/>
      <line x1="72" y1="186" x2="592" y2="186"/>
      <line x1="72" y1="144" x2="592" y2="144"/>
      <line x1="72" y1="102" x2="592" y2="102"/>
    </g>
    <polyline points="72,84 124,87 176,92 228,98 280,105 332,112 384,120 436,128 488,137 540,147 592,158" fill="none" stroke="#4DBEEE" stroke-width="5" stroke-linecap="round"/>
    <polyline points="72,228 124,228 176,228 228,205 280,205 332,182 384,182 436,160 488,160 540,136 592,136" fill="none" stroke="#A2142F" stroke-width="5" stroke-dasharray="12 9" stroke-linecap="round"/>
    <polyline points="72,170 124,169 176,168 228,167 280,165 332,164 384,162 436,160 488,158 540,156 592,154" fill="none" stroke="#7E2F8E" stroke-width="5" stroke-linecap="round"/>
  </g>
</svg>
